<?xml version="1.0" encoding="UTF-8" standalone="no"?>
<!DOCTYPE svg PUBLIC "-//W3C//DTD SVG 1.1//EN"
 "http://www.w3.org/Graphics/SVG/1.1/DTD/svg11.dtd">
<!-- Generated by graphviz version 12.2.1 (20241206.2353)
 -->
<!-- Title: G Pages: 1 -->
<svg width="1254pt" height="918pt"
 viewBox="0.00 0.00 1253.66 917.75" xmlns="http://www.w3.org/2000/svg" xmlns:xlink="http://www.w3.org/1999/xlink">
<g id="graph0" class="graph" transform="scale(1 1) rotate(0) translate(4 913.75)">
<title>G</title><style>.edge>path:hover{stroke-width:8}</style>
<polygon fill="white" stroke="none" points="-4,4 -4,-913.75 1249.66,-913.75 1249.66,4 -4,4"/>
<!-- click -->
<g id="node1" class="node">
<title>click</title><style>.edge>path:hover{stroke-width:8}</style>
<ellipse fill="#c24747" stroke="black" cx="185.88" cy="-418.88" rx="27" ry="18"/>
<text text-anchor="middle" x="185.88" y="-415" font-family="Helvetica,sans-Serif" font-size="10.00" fill="#ffffff">click</text>
</g>
<!-- src_esco_cli -->
<g id="node8" class="node">
<title>src_esco_cli</title><style>.edge>path:hover{stroke-width:8}</style>
<ellipse fill="#4cb375" stroke="black" cx="199.88" cy="-264.18" rx="40.53" ry="18"/>
<text text-anchor="middle" x="199.88" y="-260.3" font-family="Helvetica,sans-Serif" font-size="10.00" fill="#000000">src.esco_cli</text>
</g>
<!-- click&#45;&gt;src_esco_cli -->
<g id="edge1" class="edge">
<title>click&#45;&gt;src_esco_cli</title><style>.edge>path:hover{stroke-width:8}</style>
<path fill="none" stroke="black" d="M188.82,-400.5C191.7,-384.72 196.57,-360.9 202.88,-340.74"/>
<path fill="none" stroke="black" d="M202.88,-338.74C207.37,-324.4 207.1,-307.72 205.5,-293.87"/>
<polygon fill="#c24747" stroke="black" points="208.97,-293.44 204.05,-284.05 202.05,-294.46 208.97,-293.44"/>
</g>
<!-- src_services_ingestion_service -->
<g id="node19" class="node">
<title>src_services_ingestion_service</title><style>.edge>path:hover{stroke-width:8}</style>
<ellipse fill="#269b55" stroke="black" cx="367.88" cy="-180.66" rx="64.88" ry="29.52"/>
<text text-anchor="middle" x="367.88" y="-188.03" font-family="Helvetica,sans-Serif" font-size="10.00" fill="#ffffff">src.</text>
<text text-anchor="middle" x="367.88" y="-176.78" font-family="Helvetica,sans-Serif" font-size="10.00" fill="#ffffff">services.</text>
<text text-anchor="middle" x="367.88" y="-165.53" font-family="Helvetica,sans-Serif" font-size="10.00" fill="#ffffff">ingestion_service</text>
</g>
<!-- click&#45;&gt;src_services_ingestion_service -->
<g id="edge2" class="edge">
<title>click&#45;&gt;src_services_ingestion_service</title><style>.edge>path:hover{stroke-width:8}</style>
<path fill="none" stroke="black" d="M268.88,-263.18C276.61,-240.34 295.51,-222.24 314.75,-208.95"/>
<polygon fill="#c24747" stroke="black" points="316.44,-212.03 322.91,-203.64 312.62,-206.16 316.44,-212.03"/>
<path fill="none" stroke="black" d="M202.88,-338.74C216,-296.82 254.79,-306.78 268.88,-265.18"/>
</g>
<!-- numpy -->
<g id="node2" class="node">
<title>numpy</title><style>.edge>path:hover{stroke-width:8}</style>
<ellipse fill="#e69419" stroke="black" cx="960.88" cy="-891.75" rx="27" ry="18"/>
<text text-anchor="middle" x="960.88" y="-887.88" font-family="Helvetica,sans-Serif" font-size="10.00" fill="#000000">numpy</text>
</g>
<!-- sentence_transformers_SentenceTransformer -->
<g id="node5" class="node">
<title>sentence_transformers_SentenceTransformer</title><style>.edge>path:hover{stroke-width:8}</style>
<polygon fill="blue" stroke="black" points="1064.25,-686.62 945.5,-686.62 945.5,-650.62 1064.25,-650.62 1064.25,-686.62"/>
<text text-anchor="middle" x="1004.88" y="-670.37" font-family="Helvetica,sans-Serif" font-size="10.00" fill="white">sentence_transformers.</text>
<text text-anchor="middle" x="1004.88" y="-659.12" font-family="Helvetica,sans-Serif" font-size="10.00" fill="white">SentenceTransformer</text>
</g>
<!-- numpy&#45;&gt;sentence_transformers_SentenceTransformer -->
<g id="edge3" class="edge">
<title>numpy&#45;&gt;sentence_transformers_SentenceTransformer</title><style>.edge>path:hover{stroke-width:8}</style>
<path fill="none" stroke="black" d="M978.94,-877.98C990.78,-868.43 1005.24,-854.22 1011.88,-837.75 1030.44,-791.7 1021.27,-732.69 1013.01,-698.22"/>
<polygon fill="#e69419" stroke="black" points="1016.41,-697.41 1010.54,-688.58 1009.63,-699.14 1016.41,-697.41"/>
</g>
<!-- src_esco_ingest -->
<g id="node9" class="node">
<title>src_esco_ingest</title><style>.edge>path:hover{stroke-width:8}</style>
<ellipse fill="#2b824e" stroke="black" cx="598.88" cy="-339.74" rx="48.44" ry="21.57"/>
<text text-anchor="middle" x="598.88" y="-341.49" font-family="Helvetica,sans-Serif" font-size="10.00" fill="#ffffff">src.</text>
<text text-anchor="middle" x="598.88" y="-330.24" font-family="Helvetica,sans-Serif" font-size="10.00" fill="#ffffff">esco_ingest</text>
</g>
<!-- numpy&#45;&gt;src_esco_ingest -->
<g id="edge4" class="edge">
<title>numpy&#45;&gt;src_esco_ingest</title><style>.edge>path:hover{stroke-width:8}</style>
<path fill="none" stroke="black" d="M987.84,-888.99C1047.88,-884.51 1189.93,-870.6 1222.88,-837.75 1252.62,-808.1 1241.88,-787.19 1241.88,-745.19 1241.88,-745.19 1241.88,-745.19 1241.88,-592.05 1241.88,-513.69 1261.59,-472.89 1203.88,-419.88"/>
</g>
<!-- src_weaviate_semantic_search -->
<g id="node20" class="node">
<title>src_weaviate_semantic_search</title><style>.edge>path:hover{stroke-width:8}</style>
<ellipse fill="#269b55" stroke="black" cx="797.88" cy="-418.88" rx="95.11" ry="21.57"/>
<text text-anchor="middle" x="797.88" y="-420.63" font-family="Helvetica,sans-Serif" font-size="10.00" fill="#ffffff">src.</text>
<text text-anchor="middle" x="797.88" y="-409.38" font-family="Helvetica,sans-Serif" font-size="10.00" fill="#ffffff">weaviate_semantic_search</text>
</g>
<!-- numpy&#45;&gt;src_weaviate_semantic_search -->
<g id="edge5" class="edge">
<title>numpy&#45;&gt;src_weaviate_semantic_search</title><style>.edge>path:hover{stroke-width:8}</style>
<path fill="none" stroke="black" d="M942.97,-877.91C931.21,-868.33 916.76,-854.11 909.88,-837.75 847.57,-689.67 982.21,-613.8 898.88,-476.44 889.98,-461.79 875.8,-450.61 860.84,-442.23"/>
<polygon fill="#e69419" stroke="black" points="862.78,-439.3 852.29,-437.82 859.57,-445.52 862.78,-439.3"/>
</g>
<!-- torch -->
<g id="node21" class="node">
<title>torch</title><style>.edge>path:hover{stroke-width:8}</style>
<ellipse fill="#24d0d0" stroke="black" cx="768.88" cy="-819.75" rx="27" ry="18"/>
<text text-anchor="middle" x="768.88" y="-815.88" font-family="Helvetica,sans-Serif" font-size="10.00" fill="#000000">torch</text>
</g>
<!-- numpy&#45;&gt;torch -->
<g id="edge6" class="edge">
<title>numpy&#45;&gt;torch</title><style>.edge>path:hover{stroke-width:8}</style>
<path fill="none" stroke="black" d="M937.72,-882.31C904.13,-870.07 841.68,-847.3 802.87,-833.15"/>
<polygon fill="#e69419" stroke="black" points="804.13,-829.88 793.54,-829.75 801.74,-836.46 804.13,-829.88"/>
</g>
<!-- pandas -->
<g id="node3" class="node">
<title>pandas</title><style>.edge>path:hover{stroke-width:8}</style>
<ellipse fill="#aecc33" stroke="black" cx="353.88" cy="-505.97" rx="28.11" ry="18"/>
<text text-anchor="middle" x="353.88" y="-502.09" font-family="Helvetica,sans-Serif" font-size="10.00" fill="#000000">pandas</text>
</g>
<!-- pandas&#45;&gt;src_esco_ingest -->
<g id="edge7" class="edge">
<title>pandas&#45;&gt;src_esco_ingest</title><style>.edge>path:hover{stroke-width:8}</style>
<path fill="none" stroke="black" d="M365.2,-488.98C382.27,-465.9 416.69,-423.2 454.88,-397.31 471,-386.38 515.05,-369.69 550.23,-357.26"/>
<polygon fill="#aecc33" stroke="black" points="551.11,-360.66 559.39,-354.05 548.79,-354.06 551.11,-360.66"/>
</g>
<!-- pandas&#45;&gt;src_services_ingestion_service -->
<g id="edge8" class="edge">
<title>pandas&#45;&gt;src_services_ingestion_service</title><style>.edge>path:hover{stroke-width:8}</style>
<path fill="none" stroke="black" d="M360.58,-488.17C376.24,-447.75 412.51,-346.31 393.88,-318.18 360.56,-267.86 249.53,-322.33 268.88,-265.18"/>
</g>
<!-- sentence_transformers -->
<g id="node4" class="node">
<title>sentence_transformers</title><style>.edge>path:hover{stroke-width:8}</style>
<polygon fill="blue" stroke="black" points="1137.75,-611.05 1022,-611.05 1022,-575.05 1137.75,-575.05 1137.75,-611.05"/>
<text text-anchor="middle" x="1079.88" y="-589.18" font-family="Helvetica,sans-Serif" font-size="10.00" fill="white">sentence_transformers</text>
</g>
<!-- src_embedding_utils -->
<g id="node7" class="node">
<title>src_embedding_utils</title><style>.edge>path:hover{stroke-width:8}</style>
<ellipse fill="#3ab069" stroke="black" cx="1079.88" cy="-418.88" rx="61.16" ry="21.57"/>
<text text-anchor="middle" x="1079.88" y="-420.63" font-family="Helvetica,sans-Serif" font-size="10.00" fill="#000000">src.</text>
<text text-anchor="middle" x="1079.88" y="-409.38" font-family="Helvetica,sans-Serif" font-size="10.00" fill="#000000">embedding_utils</text>
</g>
<!-- sentence_transformers&#45;&gt;src_embedding_utils -->
<g id="edge9" class="edge">
<title>sentence_transformers&#45;&gt;src_embedding_utils</title><style>.edge>path:hover{stroke-width:8}</style>
<path fill="none" stroke="black" d="M1079.88,-504.97C1070.93,-488.93 1070.67,-468.4 1072.78,-451.53"/>
<polygon fill="blue" stroke="black" points="1076.17,-452.45 1074.29,-442.02 1069.26,-451.35 1076.17,-452.45"/>
</g>
<!-- sentence_transformers&#45;&gt;src_weaviate_semantic_search -->
<g id="edge10" class="edge">
<title>sentence_transformers&#45;&gt;src_weaviate_semantic_search</title><style>.edge>path:hover{stroke-width:8}</style>
<path fill="none" stroke="black" d="M1079.88,-504.97C1060.71,-470.59 962.63,-446.79 887.48,-433.28"/>
<polygon fill="blue" stroke="black" points="888.51,-429.91 878.06,-431.62 887.3,-436.8 888.51,-429.91"/>
<path fill="none" stroke="black" d="M1084.52,-574.85C1088.4,-556.74 1091.61,-528 1079.88,-506.97"/>
</g>
<!-- sentence_transformers_SentenceTransformer&#45;&gt;sentence_transformers -->
<g id="edge11" class="edge">
<title>sentence_transformers_SentenceTransformer&#45;&gt;sentence_transformers</title><style>.edge>path:hover{stroke-width:8}</style>
<path fill="none" stroke="black" d="M1022.65,-650.19C1032.08,-640.93 1043.85,-629.4 1054.25,-619.19"/>
<polygon fill="blue" stroke="black" points="1056.46,-621.92 1061.15,-612.42 1051.56,-616.93 1056.46,-621.92"/>
</g>
<!-- sentence_transformers_SentenceTransformer&#45;&gt;src_embedding_utils -->
<g id="edge12" class="edge">
<title>sentence_transformers_SentenceTransformer&#45;&gt;src_embedding_utils</title><style>.edge>path:hover{stroke-width:8}</style>
<path fill="none" stroke="black" d="M1064.73,-661.18C1094.65,-654.59 1128.35,-641.32 1146.88,-614.62 1183.19,-562.3 1136.53,-488.51 1104.79,-448.45"/>
<polygon fill="blue" stroke="black" points="1107.67,-446.45 1098.64,-440.91 1102.24,-450.87 1107.67,-446.45"/>
</g>
<!-- sentence_transformers_SentenceTransformer&#45;&gt;src_weaviate_semantic_search -->
<g id="edge13" class="edge">
<title>sentence_transformers_SentenceTransformer&#45;&gt;src_weaviate_semantic_search</title><style>.edge>path:hover{stroke-width:8}</style>
<path fill="none" stroke="black" d="M1002.82,-650.14C997.61,-613.3 980.62,-526.91 931.88,-476.44 915.74,-459.74 893.91,-447.74 872.55,-439.22"/>
<polygon fill="blue" stroke="black" points="873.81,-435.95 863.21,-435.72 871.35,-442.5 873.81,-435.95"/>
</g>
<!-- src_download_model -->
<g id="node6" class="node">
<title>src_download_model</title><style>.edge>path:hover{stroke-width:8}</style>
<ellipse fill="#46a46c" stroke="black" cx="826.88" cy="-505.97" rx="62.76" ry="21.57"/>
<text text-anchor="middle" x="826.88" y="-507.72" font-family="Helvetica,sans-Serif" font-size="10.00" fill="#000000">src.</text>
<text text-anchor="middle" x="826.88" y="-496.47" font-family="Helvetica,sans-Serif" font-size="10.00" fill="#000000">download_model</text>
</g>
<!-- src_embedding_utils&#45;&gt;src_esco_ingest -->
<g id="edge14" class="edge">
<title>src_embedding_utils&#45;&gt;src_esco_ingest</title><style>.edge>path:hover{stroke-width:8}</style>
<path fill="none" stroke="black" d="M1024.7,-409.03C932.55,-394.25 748.31,-364.71 655.32,-349.8"/>
<polygon fill="#3ab069" stroke="black" points="656.1,-346.38 645.67,-348.25 654.99,-353.29 656.1,-346.38"/>
</g>
<!-- src_esco_ingest&#45;&gt;src_services_ingestion_service -->
<g id="edge15" class="edge">
<title>src_esco_ingest&#45;&gt;src_services_ingestion_service</title><style>.edge>path:hover{stroke-width:8}</style>
<path fill="none" stroke="black" d="M578.55,-319.71C563.05,-305.04 541.31,-284.14 522.88,-265.18"/>
</g>
<!-- src_esco_translate -->
<g id="node10" class="node">
<title>src_esco_translate</title><style>.edge>path:hover{stroke-width:8}</style>
<ellipse fill="#378154" stroke="black" cx="590.88" cy="-418.88" rx="56.39" ry="21.57"/>
<text text-anchor="middle" x="590.88" y="-420.63" font-family="Helvetica,sans-Serif" font-size="10.00" fill="#ffffff">src.</text>
<text text-anchor="middle" x="590.88" y="-409.38" font-family="Helvetica,sans-Serif" font-size="10.00" fill="#ffffff">esco_translate</text>
</g>
<!-- src_esco_weaviate_client -->
<g id="node11" class="node">
<title>src_esco_weaviate_client</title><style>.edge>path:hover{stroke-width:8}</style>
<ellipse fill="#0acc58" stroke="black" cx="553.88" cy="-505.97" rx="77.6" ry="21.57"/>
<text text-anchor="middle" x="553.88" y="-507.72" font-family="Helvetica,sans-Serif" font-size="10.00" fill="#000000">src.</text>
<text text-anchor="middle" x="553.88" y="-496.47" font-family="Helvetica,sans-Serif" font-size="10.00" fill="#000000">esco_weaviate_client</text>
</g>
<!-- src_esco_weaviate_client&#45;&gt;src_esco_ingest -->
<g id="edge16" class="edge">
<title>src_esco_weaviate_client&#45;&gt;src_esco_ingest</title><style>.edge>path:hover{stroke-width:8}</style>
<path fill="none" stroke="black" d="M506.88,-417.88C508.24,-391.7 530.46,-372.63 552.72,-360"/>
<polygon fill="#0acc58" stroke="black" points="554.32,-363.11 561.53,-355.36 551.06,-356.92 554.32,-363.11"/>
</g>
<!-- src_esco_weaviate_client&#45;&gt;src_esco_translate -->
<g id="edge17" class="edge">
<title>src_esco_weaviate_client&#45;&gt;src_esco_translate</title><style>.edge>path:hover{stroke-width:8}</style>
<path fill="none" stroke="black" d="M562.83,-484.37C567.21,-474.3 572.57,-461.99 577.42,-450.82"/>
<polygon fill="#0acc58" stroke="black" points="580.49,-452.53 581.27,-441.97 574.07,-449.74 580.49,-452.53"/>
</g>
<!-- src_search_service -->
<g id="node17" class="node">
<title>src_search_service</title><style>.edge>path:hover{stroke-width:8}</style>
<ellipse fill="#378154" stroke="black" cx="326.88" cy="-339.74" rx="57.98" ry="21.57"/>
<text text-anchor="middle" x="326.88" y="-341.49" font-family="Helvetica,sans-Serif" font-size="10.00" fill="#ffffff">src.</text>
<text text-anchor="middle" x="326.88" y="-330.24" font-family="Helvetica,sans-Serif" font-size="10.00" fill="#ffffff">search_service</text>
</g>
<!-- src_esco_weaviate_client&#45;&gt;src_search_service -->
<g id="edge18" class="edge">
<title>src_esco_weaviate_client&#45;&gt;src_search_service</title><style>.edge>path:hover{stroke-width:8}</style>
<path fill="none" stroke="black" d="M526.95,-485.48C485.83,-455.74 407.4,-399 361.91,-366.09"/>
<polygon fill="#0acc58" stroke="black" points="364.11,-363.36 353.95,-360.33 360,-369.03 364.11,-363.36"/>
</g>
<!-- src_esco_weaviate_client&#45;&gt;src_services_ingestion_service -->
<g id="edge19" class="edge">
<title>src_esco_weaviate_client&#45;&gt;src_services_ingestion_service</title><style>.edge>path:hover{stroke-width:8}</style>
<path fill="none" stroke="black" d="M534.31,-484.63C520.85,-468.37 505.61,-444.31 506.88,-419.88"/>
<path fill="none" stroke="black" d="M522.88,-338.74C511.51,-308.09 545.67,-288.62 522.88,-265.18"/>
<path fill="none" stroke="black" d="M522.88,-263.18C496.98,-236.54 460.5,-216.76 429.43,-203.36"/>
<polygon fill="#0acc58" stroke="black" points="431.1,-200.26 420.52,-199.64 428.4,-206.72 431.1,-200.26"/>
<path fill="none" stroke="black" d="M506.88,-417.88C508.7,-382.91 535.04,-373.57 522.88,-340.74"/>
</g>
<!-- src_esco_weaviate_client&#45;&gt;src_weaviate_semantic_search -->
<g id="edge20" class="edge">
<title>src_esco_weaviate_client&#45;&gt;src_weaviate_semantic_search</title><style>.edge>path:hover{stroke-width:8}</style>
<path fill="none" stroke="black" d="M601.21,-488.46C639.84,-474.99 694.7,-455.86 736.66,-441.22"/>
<polygon fill="#0acc58" stroke="black" points="737.59,-444.61 745.88,-438.01 735.29,-438 737.59,-444.61"/>
</g>
<!-- src_exceptions -->
<g id="node12" class="node">
<title>src_exceptions</title><style>.edge>path:hover{stroke-width:8}</style>
<ellipse fill="#16f36f" stroke="black" cx="353.88" cy="-593.05" rx="47.19" ry="18"/>
<text text-anchor="middle" x="353.88" y="-589.18" font-family="Helvetica,sans-Serif" font-size="10.00" fill="#000000">src.exceptions</text>
</g>
<!-- src_exceptions&#45;&gt;src_esco_translate -->
<g id="edge21" class="edge">
<title>src_exceptions&#45;&gt;src_esco_translate</title><style>.edge>path:hover{stroke-width:8}</style>
<path fill="none" stroke="black" d="M373.02,-576.22C392.59,-559.7 423.48,-532.67 447.88,-506.97"/>
<path fill="none" stroke="black" d="M447.88,-504.97C458.36,-493.92 455.28,-486.32 466.88,-476.44 487.09,-459.22 513.41,-446.23 536.6,-437.07"/>
<polygon fill="#16f36f" stroke="black" points="537.82,-440.35 545.93,-433.54 535.34,-433.8 537.82,-440.35"/>
</g>
<!-- src_exceptions&#45;&gt;src_esco_weaviate_client -->
<g id="edge22" class="edge">
<title>src_exceptions&#45;&gt;src_esco_weaviate_client</title><style>.edge>path:hover{stroke-width:8}</style>
<path fill="none" stroke="black" d="M384.69,-578.95C416.04,-565.61 465.18,-544.7 502.44,-528.85"/>
<polygon fill="#16f36f" stroke="black" points="503.39,-532.25 511.22,-525.11 500.65,-525.81 503.39,-532.25"/>
</g>
<!-- src_init_ingestion -->
<g id="node13" class="node">
<title>src_init_ingestion</title><style>.edge>path:hover{stroke-width:8}</style>
<ellipse fill="#3d8f5e" stroke="black" cx="367.88" cy="-21.57" rx="51.62" ry="21.57"/>
<text text-anchor="middle" x="367.88" y="-23.32" font-family="Helvetica,sans-Serif" font-size="10.00" fill="#ffffff">src.</text>
<text text-anchor="middle" x="367.88" y="-12.07" font-family="Helvetica,sans-Serif" font-size="10.00" fill="#ffffff">init_ingestion</text>
</g>
<!-- src_exceptions&#45;&gt;src_init_ingestion -->
<g id="edge23" class="edge">
<title>src_exceptions&#45;&gt;src_init_ingestion</title><style>.edge>path:hover{stroke-width:8}</style>
<path fill="none" stroke="black" d="M297.88,-504.97C281.45,-413.82 539.28,-271.72 560.88,-181.66"/>
<path fill="none" stroke="black" d="M560.88,-179.66C567.15,-143.97 567.01,-133.84 560.88,-98.13"/>
</g>
<!-- src_exceptions&#45;&gt;src_search_service -->
<g id="edge24" class="edge">
<title>src_exceptions&#45;&gt;src_search_service</title><style>.edge>path:hover{stroke-width:8}</style>
<path fill="none" stroke="black" d="M297.88,-504.97C291,-466.83 256.5,-451.51 278.88,-419.88"/>
<path fill="none" stroke="black" d="M337.44,-575.98C322.75,-560.1 302.8,-534.29 297.88,-506.97"/>
</g>
<!-- src_exceptions&#45;&gt;src_services_ingestion_service -->
<g id="edge25" class="edge">
<title>src_exceptions&#45;&gt;src_services_ingestion_service</title><style>.edge>path:hover{stroke-width:8}</style>
<path fill="none" stroke="black" d="M328.03,-577.52C312.83,-567.62 294.56,-553.13 283.88,-535.49 221.58,-432.55 226.33,-377.73 268.88,-265.18"/>
</g>
<!-- src_logging_config -->
<g id="node14" class="node">
<title>src_logging_config</title><style>.edge>path:hover{stroke-width:8}</style>
<ellipse fill="#10f96d" stroke="black" cx="742.88" cy="-593.05" rx="55.33" ry="21.57"/>
<text text-anchor="middle" x="742.88" y="-594.8" font-family="Helvetica,sans-Serif" font-size="10.00" fill="#000000">src.</text>
<text text-anchor="middle" x="742.88" y="-583.55" font-family="Helvetica,sans-Serif" font-size="10.00" fill="#000000">logging_config</text>
</g>
<!-- src_logging_config&#45;&gt;src_download_model -->
<g id="edge26" class="edge">
<title>src_logging_config&#45;&gt;src_download_model</title><style>.edge>path:hover{stroke-width:8}</style>
<path fill="none" stroke="black" d="M761.94,-572.75C773.06,-561.48 787.27,-547.09 799.56,-534.64"/>
<polygon fill="#10f96d" stroke="black" points="801.71,-537.44 806.25,-527.86 796.73,-532.52 801.71,-537.44"/>
</g>
<!-- src_logging_config&#45;&gt;src_esco_ingest -->
<g id="edge27" class="edge">
<title>src_logging_config&#45;&gt;src_esco_ingest</title><style>.edge>path:hover{stroke-width:8}</style>
<path fill="none" stroke="black" d="M674.88,-417.88C660.85,-399.92 643.07,-381.68 628.23,-367.44"/>
<polygon fill="#10f96d" stroke="black" points="630.66,-364.92 620.99,-360.6 625.85,-370.01 630.66,-364.92"/>
</g>
<!-- src_logging_config&#45;&gt;src_esco_translate -->
<g id="edge28" class="edge">
<title>src_logging_config&#45;&gt;src_esco_translate</title><style>.edge>path:hover{stroke-width:8}</style>
<path fill="none" stroke="black" d="M729.24,-571.69C718.81,-555.03 705.03,-530.47 697.88,-506.97"/>
<path fill="none" stroke="black" d="M697.88,-504.97C689.06,-476.03 662.51,-454.82 638.06,-440.81"/>
<polygon fill="#10f96d" stroke="black" points="639.92,-437.83 629.46,-436.15 636.58,-443.99 639.92,-437.83"/>
</g>
<!-- src_logging_config&#45;&gt;src_esco_weaviate_client -->
<g id="edge29" class="edge">
<title>src_logging_config&#45;&gt;src_esco_weaviate_client</title><style>.edge>path:hover{stroke-width:8}</style>
<path fill="none" stroke="black" d="M707.33,-576.05C678.09,-562.89 636.32,-544.08 603.74,-529.41"/>
<polygon fill="#10f96d" stroke="black" points="605.45,-526.35 594.89,-525.43 602.58,-532.73 605.45,-526.35"/>
</g>
<!-- src_logging_config&#45;&gt;src_init_ingestion -->
<g id="edge30" class="edge">
<title>src_logging_config&#45;&gt;src_init_ingestion</title><style>.edge>path:hover{stroke-width:8}</style>
<path fill="none" stroke="black" d="M674.88,-417.88C647.1,-382.33 673.37,-359.76 655.88,-318.18 627.22,-250.04 548.08,-254.46 560.88,-181.66"/>
</g>
<!-- src_logging_config&#45;&gt;src_search_service -->
<g id="edge31" class="edge">
<title>src_logging_config&#45;&gt;src_search_service</title><style>.edge>path:hover{stroke-width:8}</style>
<path fill="none" stroke="black" d="M674.88,-417.88C667.22,-408.07 666.81,-403.25 655.88,-397.31 611.8,-373.37 476.9,-355.94 394.16,-347.16"/>
<polygon fill="#10f96d" stroke="black" points="394.66,-343.7 384.35,-346.14 393.93,-350.66 394.66,-343.7"/>
<path fill="none" stroke="black" d="M697.88,-504.97C686.46,-467.49 699,-450.75 674.88,-419.88"/>
</g>
<!-- src_logging_config&#45;&gt;src_services_ingestion_service -->
<g id="edge32" class="edge">
<title>src_logging_config&#45;&gt;src_services_ingestion_service</title><style>.edge>path:hover{stroke-width:8}</style>
<path fill="none" stroke="black" d="M674.88,-417.88C667.22,-408.07 666.38,-403.98 655.88,-397.31 611.01,-368.84 586.74,-389.78 541.88,-361.31 531.37,-354.64 527.2,-352.41 522.88,-340.74"/>
</g>
<!-- src_logging_config&#45;&gt;src_weaviate_semantic_search -->
<g id="edge33" class="edge">
<title>src_logging_config&#45;&gt;src_weaviate_semantic_search</title><style>.edge>path:hover{stroke-width:8}</style>
<path fill="none" stroke="black" d="M697.88,-504.97C689.66,-477.99 712.73,-457.22 738.77,-442.95"/>
<polygon fill="#10f96d" stroke="black" points="740.18,-446.16 747.49,-438.49 737,-439.93 740.18,-446.16"/>
</g>
<!-- src_models -->
<g id="node15" class="node">
<title>src_models</title><style>.edge>path:hover{stroke-width:8}</style>
<ellipse fill="#33cc70" stroke="black" cx="64.88" cy="-418.88" rx="37.87" ry="18"/>
<text text-anchor="middle" x="64.88" y="-415" font-family="Helvetica,sans-Serif" font-size="10.00" fill="#000000">src.models</text>
</g>
<!-- src_models&#45;&gt;src_init_ingestion -->
<g id="edge34" class="edge">
<title>src_models&#45;&gt;src_init_ingestion</title><style>.edge>path:hover{stroke-width:8}</style>
<path fill="none" stroke="black" d="M62.95,-400.53C61.65,-384.77 60.83,-360.97 64.88,-340.74"/>
</g>
<!-- src_models&#45;&gt;src_search_service -->
<g id="edge35" class="edge">
<title>src_models&#45;&gt;src_search_service</title><style>.edge>path:hover{stroke-width:8}</style>
<path fill="none" stroke="black" d="M96.48,-408.57C139.81,-395.82 218.33,-372.7 271.53,-357.04"/>
<polygon fill="#33cc70" stroke="black" points="272.42,-360.42 281.02,-354.24 270.44,-353.71 272.42,-360.42"/>
</g>
<!-- src_models_ingestion_models -->
<g id="node16" class="node">
<title>src_models_ingestion_models</title><style>.edge>path:hover{stroke-width:8}</style>
<ellipse fill="#26d96e" stroke="black" cx="64.88" cy="-505.97" rx="64.88" ry="29.52"/>
<text text-anchor="middle" x="64.88" y="-513.34" font-family="Helvetica,sans-Serif" font-size="10.00" fill="#000000">src.</text>
<text text-anchor="middle" x="64.88" y="-502.09" font-family="Helvetica,sans-Serif" font-size="10.00" fill="#000000">models.</text>
<text text-anchor="middle" x="64.88" y="-490.84" font-family="Helvetica,sans-Serif" font-size="10.00" fill="#000000">ingestion_models</text>
</g>
<!-- src_models_ingestion_models&#45;&gt;src_init_ingestion -->
<g id="edge36" class="edge">
<title>src_models_ingestion_models&#45;&gt;src_init_ingestion</title><style>.edge>path:hover{stroke-width:8}</style>
<path fill="none" stroke="black" d="M64.88,-338.74C93.65,-194.98 251.01,-88.4 326.9,-44.55"/>
<polygon fill="#26d96e" stroke="black" points="328.34,-47.77 335.3,-39.78 324.88,-41.68 328.34,-47.77"/>
<path fill="none" stroke="black" d="M39.81,-478.54C31.1,-467.62 22.38,-454.28 17.88,-440.44 11.94,-422.22 11.36,-415.34 17.88,-397.31 28.98,-366.57 52.89,-371.15 64.88,-340.74"/>
</g>
<!-- src_models_ingestion_models&#45;&gt;src_models -->
<g id="edge37" class="edge">
<title>src_models_ingestion_models&#45;&gt;src_models</title><style>.edge>path:hover{stroke-width:8}</style>
<path fill="none" stroke="black" d="M64.88,-476.16C64.88,-467.28 64.88,-457.5 64.88,-448.62"/>
<polygon fill="#26d96e" stroke="black" points="68.38,-448.75 64.88,-438.75 61.38,-448.75 68.38,-448.75"/>
</g>
<!-- src_models_ingestion_models&#45;&gt;src_search_service -->
<g id="edge38" class="edge">
<title>src_models_ingestion_models&#45;&gt;src_search_service</title><style>.edge>path:hover{stroke-width:8}</style>
<path fill="none" stroke="black" d="M128,-498.24C177.84,-489.28 244.53,-468.43 278.88,-419.88"/>
<path fill="none" stroke="black" d="M278.88,-417.88C289.61,-402.71 300.63,-385.16 309.4,-370.65"/>
<polygon fill="#26d96e" stroke="black" points="312.18,-372.82 314.3,-362.44 306.17,-369.23 312.18,-372.82"/>
</g>
<!-- src_services -->
<g id="node18" class="node">
<title>src_services</title><style>.edge>path:hover{stroke-width:8}</style>
<ellipse fill="#40c073" stroke="black" cx="367.88" cy="-97.13" rx="40.97" ry="18"/>
<text text-anchor="middle" x="367.88" y="-93.26" font-family="Helvetica,sans-Serif" font-size="10.00" fill="#000000">src.services</text>
</g>
<!-- src_services&#45;&gt;src_init_ingestion -->
<g id="edge39" class="edge">
<title>src_services&#45;&gt;src_init_ingestion</title><style>.edge>path:hover{stroke-width:8}</style>
<path fill="none" stroke="black" d="M367.88,-78.7C367.88,-71.54 367.88,-63.01 367.88,-54.79"/>
<polygon fill="#40c073" stroke="black" points="371.38,-55.06 367.88,-45.06 364.38,-55.06 371.38,-55.06"/>
</g>
<!-- src_services_ingestion_service&#45;&gt;src_init_ingestion -->
<g id="edge40" class="edge">
<title>src_services_ingestion_service&#45;&gt;src_init_ingestion</title><style>.edge>path:hover{stroke-width:8}</style>
<path fill="none" stroke="black" d="M432.82,-178.08C492.63,-173.05 570.75,-155.58 560.88,-98.13"/>
<path fill="none" stroke="black" d="M560.88,-96.13C555.98,-67.62 480.56,-45.82 425.48,-33.6"/>
<polygon fill="#269b55" stroke="black" points="426.4,-30.22 415.89,-31.53 424.93,-37.06 426.4,-30.22"/>
</g>
<!-- src_services_ingestion_service&#45;&gt;src_services -->
<g id="edge41" class="edge">
<title>src_services_ingestion_service&#45;&gt;src_services</title><style>.edge>path:hover{stroke-width:8}</style>
<path fill="none" stroke="black" d="M367.88,-150.68C367.88,-143 367.88,-134.69 367.88,-127.01"/>
<polygon fill="#269b55" stroke="black" points="371.38,-127.14 367.88,-117.14 364.38,-127.14 371.38,-127.14"/>
</g>
<!-- src_weaviate_semantic_search&#45;&gt;src_esco_ingest -->
<g id="edge42" class="edge">
<title>src_weaviate_semantic_search&#45;&gt;src_esco_ingest</title><style>.edge>path:hover{stroke-width:8}</style>
<path fill="none" stroke="black" d="M750.97,-399.7C718.97,-387.29 676.77,-370.94 644.95,-358.6"/>
<polygon fill="#269b55" stroke="black" points="646.58,-355.48 636,-355.13 644.05,-362.01 646.58,-355.48"/>
</g>
<!-- src_weaviate_semantic_search&#45;&gt;src_search_service -->
<g id="edge43" class="edge">
<title>src_weaviate_semantic_search&#45;&gt;src_search_service</title><style>.edge>path:hover{stroke-width:8}</style>
<path fill="none" stroke="black" d="M726.99,-404.17C714.31,-401.81 701.21,-399.44 688.88,-397.31 585.05,-379.41 464.03,-360.99 391.53,-350.22"/>
<polygon fill="#269b55" stroke="black" points="392.23,-346.78 381.82,-348.78 391.2,-353.71 392.23,-346.78"/>
</g>
<!-- torch&#45;&gt;sentence_transformers_SentenceTransformer -->
<g id="edge44" class="edge">
<title>torch&#45;&gt;sentence_transformers_SentenceTransformer</title><style>.edge>path:hover{stroke-width:8}</style>
<path fill="none" stroke="black" d="M693.88,-743.19C702.02,-695.31 844.48,-678.51 933.73,-672.67"/>
<polygon fill="#24d0d0" stroke="black" points="933.87,-676.17 943.64,-672.06 933.44,-669.18 933.87,-676.17"/>
</g>
<!-- torch&#45;&gt;src_esco_translate -->
<g id="edge45" class="edge">
<title>torch&#45;&gt;src_esco_translate</title><style>.edge>path:hover{stroke-width:8}</style>
<path fill="none" stroke="black" d="M659.88,-592.05C644.2,-542.4 663.22,-523.48 640.88,-476.44 635.86,-465.88 628.26,-455.8 620.5,-447.16"/>
<polygon fill="#24d0d0" stroke="black" points="623.23,-444.96 613.8,-440.13 618.16,-449.79 623.23,-444.96"/>
<path fill="none" stroke="black" d="M693.88,-667.62C702.79,-632.72 673.23,-627.51 659.88,-594.05"/>
<path fill="none" stroke="black" d="M693.88,-743.19C699.36,-710.95 685.78,-701.3 693.88,-669.62"/>
<path fill="none" stroke="black" d="M746.56,-809.36C722.65,-797.64 688.74,-775.4 693.88,-745.19"/>
</g>
<!-- torch&#45;&gt;src_weaviate_semantic_search -->
<g id="edge46" class="edge">
<title>torch&#45;&gt;src_weaviate_semantic_search</title><style>.edge>path:hover{stroke-width:8}</style>
<path fill="none" stroke="black" d="M693.88,-667.62C709.61,-614.43 777.12,-661.44 806.88,-614.62 817.16,-598.44 815.77,-588.47 806.88,-571.49 793.83,-546.59 767.92,-560.39 754.88,-535.49 742.7,-512.24 746.5,-501.31 754.88,-476.44 758.17,-466.68 763.89,-457.26 770.11,-449"/>
<polygon fill="#24d0d0" stroke="black" points="772.7,-451.37 776.28,-441.4 767.26,-446.96 772.7,-451.37"/>
</g>
<!-- tqdm -->
<g id="node22" class="node">
<title>tqdm</title><style>.edge>path:hover{stroke-width:8}</style>
<ellipse fill="#2f73db" stroke="black" cx="1186.88" cy="-819.75" rx="27" ry="18"/>
<text text-anchor="middle" x="1186.88" y="-815.88" font-family="Helvetica,sans-Serif" font-size="10.00" fill="#ffffff">tqdm</text>
</g>
<!-- tqdm&#45;&gt;sentence_transformers_SentenceTransformer -->
<g id="edge47" class="edge">
<title>tqdm&#45;&gt;sentence_transformers_SentenceTransformer</title><style>.edge>path:hover{stroke-width:8}</style>
<path fill="none" stroke="black" d="M1203.88,-743.19C1185.77,-693.59 1125.56,-676.47 1076.06,-671.01"/>
<polygon fill="#2f73db" stroke="black" points="1076.51,-667.53 1066.22,-670.08 1075.85,-674.5 1076.51,-667.53"/>
<path fill="none" stroke="black" d="M1195.98,-802.35C1203.14,-787.22 1210.84,-764.27 1203.88,-745.19"/>
</g>
<!-- tqdm&#45;&gt;src_embedding_utils -->
<g id="edge48" class="edge">
<title>tqdm&#45;&gt;src_embedding_utils</title><style>.edge>path:hover{stroke-width:8}</style>
<path fill="none" stroke="black" d="M1203.88,-667.62C1168.91,-605.37 1225.61,-574.98 1203.88,-506.97"/>
<path fill="none" stroke="black" d="M1203.88,-504.97C1194.67,-472.89 1163.75,-451.64 1135.1,-438.39"/>
<polygon fill="#2f73db" stroke="black" points="1136.64,-435.24 1126.07,-434.47 1133.85,-441.66 1136.64,-435.24"/>
</g>
<!-- tqdm&#45;&gt;src_esco_ingest -->
<g id="edge49" class="edge">
<title>tqdm&#45;&gt;src_esco_ingest</title><style>.edge>path:hover{stroke-width:8}</style>
<path fill="none" stroke="black" d="M1203.88,-504.97C1193.45,-468.62 1231.73,-445.46 1203.88,-419.88"/>
<path fill="none" stroke="black" d="M1203.88,-417.88C1125.36,-345.75 796,-339.37 659.02,-339.93"/>
<polygon fill="#2f73db" stroke="black" points="659.04,-336.43 649.06,-339.99 659.08,-343.43 659.04,-336.43"/>
</g>
<!-- tqdm&#45;&gt;src_esco_translate -->
<g id="edge50" class="edge">
<title>tqdm&#45;&gt;src_esco_translate</title><style>.edge>path:hover{stroke-width:8}</style>
<path fill="none" stroke="black" d="M1203.88,-743.19C1192.67,-712.47 1220.02,-698.05 1203.88,-669.62"/>
<path fill="none" stroke="black" d="M1203.88,-667.62C1160.38,-591.01 1086.77,-662.59 1012.88,-614.62 946.1,-571.27 968.14,-515.7 898.88,-476.44 805.8,-423.7 765.33,-463.58 660.88,-440.44 655.59,-439.27 650.12,-437.92 644.67,-436.48"/>
<polygon fill="#2f73db" stroke="black" points="645.61,-433.11 635.04,-433.82 643.75,-439.86 645.61,-433.11"/>
</g>
<!-- transformers -->
<g id="node23" class="node">
<title>transformers</title><style>.edge>path:hover{stroke-width:8}</style>
<ellipse fill="#4a26d9" stroke="black" cx="960.88" cy="-819.75" rx="41.86" ry="18"/>
<text text-anchor="middle" x="960.88" y="-815.88" font-family="Helvetica,sans-Serif" font-size="10.00" fill="#ffffff">transformers</text>
</g>
<!-- transformers&#45;&gt;sentence_transformers_SentenceTransformer -->
<g id="edge51" class="edge">
<title>transformers&#45;&gt;sentence_transformers_SentenceTransformer</title><style>.edge>path:hover{stroke-width:8}</style>
<path fill="none" stroke="black" d="M928.88,-743.19C926.52,-722.21 941.61,-705.24 958.94,-692.9"/>
<polygon fill="#4a26d9" stroke="black" points="960.42,-696.12 966.87,-687.71 956.59,-690.26 960.42,-696.12"/>
</g>
<!-- transformers&#45;&gt;src_download_model -->
<g id="edge52" class="edge">
<title>transformers&#45;&gt;src_download_model</title><style>.edge>path:hover{stroke-width:8}</style>
<path fill="none" stroke="black" d="M950.16,-802.04C941.8,-787.64 931.21,-765.95 928.88,-745.19"/>
<path fill="none" stroke="black" d="M928.88,-743.19C919.96,-663.87 873.81,-580.2 846.73,-536.89"/>
<polygon fill="#4a26d9" stroke="black" points="849.75,-535.11 841.43,-528.55 843.84,-538.87 849.75,-535.11"/>
</g>
<!-- transformers&#45;&gt;src_esco_translate -->
<g id="edge53" class="edge">
<title>transformers&#45;&gt;src_esco_translate</title><style>.edge>path:hover{stroke-width:8}</style>
<path fill="none" stroke="black" d="M938.87,-804.28C871.64,-759.81 672.72,-626.23 659.88,-594.05"/>
</g>
<!-- weaviate -->
<g id="node24" class="node">
<title>weaviate</title><style>.edge>path:hover{stroke-width:8}</style>
<ellipse fill="#9e4cb3" stroke="black" cx="614.88" cy="-668.62" rx="32.54" ry="18"/>
<text text-anchor="middle" x="614.88" y="-664.75" font-family="Helvetica,sans-Serif" font-size="10.00" fill="#ffffff">weaviate</text>
</g>
<!-- weaviate&#45;&gt;src_esco_weaviate_client -->
<g id="edge54" class="edge">
<title>weaviate&#45;&gt;src_esco_weaviate_client</title><style>.edge>path:hover{stroke-width:8}</style>
<path fill="none" stroke="black" d="M595.86,-653.84C579.83,-640.66 558.75,-619.14 553.88,-594.05"/>
</g>
<!-- weaviate_exceptions -->
<g id="node25" class="node">
<title>weaviate_exceptions</title><style>.edge>path:hover{stroke-width:8}</style>
<ellipse fill="#a947c2" stroke="black" cx="596.88" cy="-744.19" rx="44.72" ry="21.57"/>
<text text-anchor="middle" x="596.88" y="-745.94" font-family="Helvetica,sans-Serif" font-size="10.00" fill="#ffffff">weaviate.</text>
<text text-anchor="middle" x="596.88" y="-734.69" font-family="Helvetica,sans-Serif" font-size="10.00" fill="#ffffff">exceptions</text>
</g>
<!-- weaviate_exceptions&#45;&gt;src_esco_weaviate_client -->
<g id="edge55" class="edge">
<title>weaviate_exceptions&#45;&gt;src_esco_weaviate_client</title><style>.edge>path:hover{stroke-width:8}</style>
<path fill="none" stroke="black" d="M587.1,-722.87C582.29,-712.26 576.71,-698.95 572.88,-686.62 560.39,-646.52 561.88,-635.28 553.88,-594.05"/>
<path fill="none" stroke="black" d="M553.88,-592.05C549.81,-574.81 549.56,-555.06 550.43,-538.93"/>
<polygon fill="#a947c2" stroke="black" points="553.89,-539.64 551.12,-529.42 546.91,-539.14 553.89,-539.64"/>
</g>
<!-- weaviate_exceptions&#45;&gt;weaviate -->
<g id="edge56" class="edge">
<title>weaviate_exceptions&#45;&gt;weaviate</title><style>.edge>path:hover{stroke-width:8}</style>
<path fill="none" stroke="black" d="M601.99,-722.3C603.85,-714.68 605.99,-705.93 607.99,-697.78"/>
<polygon fill="#a947c2" stroke="black" points="611.33,-698.85 610.31,-688.3 604.53,-697.19 611.33,-698.85"/>
</g>
<!-- yaml -->
<g id="node26" class="node">
<title>yaml</title><style>.edge>path:hover{stroke-width:8}</style>
<ellipse fill="#e72298" stroke="black" cx="353.88" cy="-668.62" rx="27" ry="18"/>
<text text-anchor="middle" x="353.88" y="-664.75" font-family="Helvetica,sans-Serif" font-size="10.00" fill="#ffffff">yaml</text>
</g>
<!-- yaml&#45;&gt;src_esco_ingest -->
<g id="edge57" class="edge">
<title>yaml&#45;&gt;src_esco_ingest</title><style>.edge>path:hover{stroke-width:8}</style>
<path fill="none" stroke="black" d="M447.88,-592.05C461.94,-570.31 437.01,-561.2 433.88,-535.49 430.7,-509.44 425.61,-501.35 433.88,-476.44 447.69,-434.81 459.61,-425.91 492.88,-397.31 510.71,-381.98 533.39,-369.18 553.2,-359.66"/>
<polygon fill="#e72298" stroke="black" points="554.58,-362.87 562.18,-355.48 551.63,-356.52 554.58,-362.87"/>
<path fill="none" stroke="black" d="M374.39,-656.49C395.66,-643.96 428.46,-621.7 447.88,-594.05"/>
</g>
<!-- yaml&#45;&gt;src_esco_translate -->
<g id="edge58" class="edge">
<title>yaml&#45;&gt;src_esco_translate</title><style>.edge>path:hover{stroke-width:8}</style>
<path fill="none" stroke="black" d="M447.88,-592.05C468.42,-560.3 421.84,-534.39 447.88,-506.97"/>
</g>
<!-- yaml&#45;&gt;src_esco_weaviate_client -->
<g id="edge59" class="edge">
<title>yaml&#45;&gt;src_esco_weaviate_client</title><style>.edge>path:hover{stroke-width:8}</style>
<path fill="none" stroke="black" d="M447.88,-592.05C463.73,-567.54 489.01,-546.85 510.91,-532.02"/>
<polygon fill="#e72298" stroke="black" points="512.65,-535.06 519.1,-526.65 508.82,-529.2 512.65,-535.06"/>
</g>
<!-- yaml&#45;&gt;src_search_service -->
<g id="edge60" class="edge">
<title>yaml&#45;&gt;src_search_service</title><style>.edge>path:hover{stroke-width:8}</style>
<path fill="none" stroke="black" d="M259.88,-592.05C212.69,-531.22 234.41,-482.73 278.88,-419.88"/>
</g>
<!-- yaml&#45;&gt;src_services_ingestion_service -->
<g id="edge61" class="edge">
<title>yaml&#45;&gt;src_services_ingestion_service</title><style>.edge>path:hover{stroke-width:8}</style>
<path fill="none" stroke="black" d="M259.88,-592.05C155.09,-469.42 53.35,-375.42 149.88,-246.18 167.59,-222.46 239.39,-204.38 295.81,-193.48"/>
<polygon fill="#e72298" stroke="black" points="296.21,-196.97 305.38,-191.68 294.91,-190.09 296.21,-196.97"/>
<path fill="none" stroke="black" d="M334.22,-655.83C313.67,-642.76 281.46,-620.04 259.88,-594.05"/>
</g>
</g>
</svg>
